<?xml version="1.0" encoding="UTF-8"?>
<svg id="Layer_2" data-name="Layer 2" xmlns="http://www.w3.org/2000/svg" viewBox="0 0 464.39 98.3">
  <defs>
    <style>
      .cls-1 {
        fill: #000f33;
      }

      .cls-2 {
        fill: #ec1c24;
      }
    </style>
  </defs>
  <g id="Layer_2-2" data-name="Layer 2">
    <g>
      <path class="cls-2" d="M88.73,22.37c0,2.37-.08,4.74.02,7.1.14,3.22-2.71,6.06-6.02,6-4.48-.08-8.96-.02-13.44-.01-.44,0-.89.04-1.32.14-3.84.89-7.29,2.54-10.19,5.24-1.66,1.55-2.99,3.35-4.1,5.33-1.26,2.26-2.11,4.66-2.73,7.15-.59,2.35-.99,4.74-1.1,7.17-.12,2.67-.27,5.34-.31,8-.04,3.41-.81,6.62-2.48,9.58-5.93,10.45-18.8,13.14-28.2,6.98-3.15-2.07-5.51-4.82-7.12-8.21-1.61-3.37-2.09-6.94-1.72-10.65.97-9.53,8.96-17.09,18.51-17.59,2.17-.11,4.34-.14,6.5-.34,5.32-.51,10.48-1.71,15.33-4.03,3.09-1.48,5.87-3.39,8.11-6.02,2.01-2.37,3.42-5.05,4.01-8.13.08-.41.09-.83.09-1.24v-13.44c0-3.48,2.6-6.05,6.09-6.04,4.67,0,9.35,0,14.03,0,2.72,0,4.9,1.49,5.8,4.05.18.51.21,1.09.22,1.64.03,1.22.01,2.45.01,3.67v3.67-.02Z"/>
      <g>
        <path class="cls-1" d="M46.62,44.46c-1.29.37-2.37.74-3.47.97-2.01.42-4.04.79-6.07,1.12-.47.07-.99-.02-1.47-.14-5.68-1.46-11.15-.94-16.39,1.7-3.71,1.87-6.67,4.6-8.93,8.07-1.36,2.09-2.37,4.35-2.96,6.77-.82,3.33-.98,6.68-.29,10.09.49,2.43,1.29,4.72,2.49,6.86,1.86,3.33,4.37,6.11,7.64,8.1,7.82,4.77,15.81,4.94,23.87.62,3.45-1.85,6.16-4.56,8.21-7.88,2.73-4.43,3.81-9.27,3.27-14.45-.14-1.32-.34-2.64-.77-3.92-.22-.66-.24-1.35-.21-2.06.09-2.35.52-4.64,1.03-6.92.18-.81.45-1.6.72-2.56.4.54.74.95,1.04,1.4,1.17,1.8,2.17,3.69,2.94,5.69.87,2.29,1.46,4.66,1.77,7.1.54,4.13.16,8.17-1.04,12.13-.89,2.94-2.27,5.66-4.04,8.18-3.01,4.27-6.81,7.63-11.51,9.88-9.12,4.37-18.19,4.09-27.1-.64-4.1-2.17-7.41-5.28-10.06-9.08-1.57-2.24-2.81-4.67-3.67-7.27-1.19-3.57-1.76-7.23-1.54-11,.14-2.46.56-4.85,1.26-7.21,1.48-4.93,4.09-9.15,7.78-12.73,9-8.73,22.61-10.8,33.79-5.11,1.11.57,2.17,1.24,3.25,1.87.11.07.21.16.5.39v.02Z"/>
        <path class="cls-1" d="M57.5,42.65c1.76-2.01,3.86-3.52,6.3-4.56.22-.09.52-.07.78-.04.79.11,1.58.37,2.37.37,5.84.03,11.69,0,17.53.02,3.06.01,5.92-1.95,6.95-5.15.22-.67.27-1.42.28-2.14.02-5.87,0-11.75.02-17.61.02-4.25-3.62-7.28-7.28-7.24-5.82.06-11.63,0-17.45.02-2.86,0-5.03,1.29-6.46,3.74-.62,1.06-.96,2.24-.95,3.5.02,5.84,0,11.69.02,17.53,0,.76.27,1.52.4,2.28.04.23.11.51.02.69-1.2,2.36-2.84,4.36-5.06,6.03-.54-.92-1.01-1.81-1.24-2.81-.27-1.2-.34-2.41-.34-3.64.01-7.82-.02-15.64.02-23.46.02-4.04,1.87-7.07,5.39-9.05C60.13.4,61.58.02,63.12.02c8.38,0,16.75-.06,25.13.02,3.77.03,6.59,1.9,8.52,5.13.94,1.57,1.33,3.28,1.33,5.1,0,8.07-.04,16.14.01,24.21.04,5.79-4.72,10.27-10.3,10.23-8.07-.06-16.14-.02-24.21-.01-2.12,0-4.06-.56-5.84-1.72-.07-.04-.13-.1-.19-.16-.02-.02-.02-.05-.06-.16h0Z"/>
      </g>
      <path class="cls-2" d="M159.35,23.35c-1.47,1.95-3.01,3.76-4.3,5.74-1.27,1.94-2.29,4.05-3.4,6.06-1.22-.31-2.46-.7-3.72-.91-7.95-1.33-15.68,4.21-17.01,12.16-1.37,8.16,4.04,15.93,12.09,17.24,5.67.92,10.4-.87,14.19-5.19.51-.59.66-1.13.45-1.94-4.3-16.1,5.65-32.41,21.92-35.96.62-.14,1.28-.21,1.92-.21,2.84-.02,5.68-.04,8.52,0,.89.01,1.79.17,2.66.37,12.21,2.91,21.29,13.67,22.12,26.18.99,14.87-9.13,27.95-23.77,30.66-6.35,1.17-12.45.28-18.26-2.57-.31-.16-.61-.35-1.02-.59,3.35-3.5,5.92-7.4,7.68-11.72,1.4.36,2.66.79,3.96,1,8.43,1.41,16.34-4.64,17.22-13.13.83-8.05-4.67-15.18-12.77-16.35-8.16-1.18-15.22,4.34-16.72,11.76-.76,3.79-.17,7.37,1.84,10.68.39.66.47,1.2.19,1.9-4.14,10.71-11.8,17.32-23.17,19.12-15.18,2.41-29.39-7.37-32.72-22.35-3.67-16.54,7.15-31.65,22.47-34.81.56-.11,1.14-.16,1.71-.16,2.59-.02,5.17.01,7.77-.02,1.2-.01,2.39.06,3.51.44,1.94.66,3.85,1.39,5.76,2.11.32.12.61.33.87.48h0Z"/>
      <g>
        <path class="cls-1" d="M270.89,44.08v32.78c-.37.04-.65.09-.92.09-3.99,0-7.98-.02-11.97.02-.73,0-1.09-.36-1.47-.86-7.63-10.05-15.26-20.09-22.9-30.14-.49-.66-.99-1.31-1.47-1.92-.11.02-.15.02-.18.03-.03.01-.07.04-.07.06-.02.11-.04.21-.04.32,0,10.68,0,21.35-.01,32.02,0,.07-.02.14-.04.21,0,.03-.02.06-.07.17h-13.28c-.24-.74-.35-53.62-.1-55.57.37-.02.75-.05,1.14-.05,3.52,0,7.05.02,10.56-.02.77,0,1.24.27,1.69.87,7.88,10.45,15.78,20.87,23.68,31.3.26.34.51.67.89.98.14-2.19.11-4.35.11-6.51s0-4.45-.01-6.68c0-2.19,0-4.39,0-6.58,0-2.23,0-4.45-.01-6.68v-6.7h1.6c3.67,0,7.33.02,11-.02.82-.01,1.3.29,1.77.92,7.9,10.47,15.83,20.93,23.75,31.39.23.31.46.61.87.83V21.47c.84-.26,12.16-.32,13.44-.08v55.44c-.24.04-.47.12-.71.12-3.74,0-7.48-.02-11.21.02-.71,0-1.02-.39-1.37-.85-3.98-5.24-7.96-10.48-11.94-15.71-3.96-5.21-7.92-10.41-11.88-15.63-.21-.27-.43-.52-.65-.79-.06.02-.12.05-.18.07h-.01Z"/>
        <path class="cls-1" d="M314.47,76.74V21.32c.76-.24,42.44-.32,43.89-.07v11.48h-29.28v10.39h26.3c.24.86.31,9.96.07,11.5-8.75.04-17.54.09-26.38.13v10.4h29.94c.26.94.28,10.62.04,11.6h-44.59,0Z"/>
        <path class="cls-1" d="M407.73,58.31c2.86,3.07,5.64,6.06,8.48,9.1-.29.31-.53.57-.79.82-5.2,5-11.31,8.3-18.47,9.29-15.29,2.13-29.1-7.18-32.33-21.64-2.15-9.61-.37-18.45,6.28-25.98,4.34-4.91,9.86-7.89,16.27-9.05,9.6-1.74,18.34.34,26.07,6.35,1.01.79,1.92,1.71,2.92,2.61-2.86,3.45-5.63,6.79-8.44,10.18-.31-.34-.56-.61-.79-.87-2.08-2.35-4.55-4.17-7.45-5.38-6.92-2.89-14.7-.36-18.39,6.17-3.24,5.72-3.25,11.63-.09,17.39,3.36,6.1,10.3,8.83,17.01,6.88,3.16-.92,5.94-2.52,8.4-4.69.4-.36.79-.72,1.31-1.18h.02Z"/>
        <path class="cls-1" d="M416.79,21.17h47.61v11.85c-1.09.19-2.19.07-3.29.09-1.08.02-2.16,0-3.24,0h-10.01v43.5c-.94.24-13.37.27-14.58.05v-43.53h-16.5v-11.95h0Z"/>
      </g>
    </g>
  </g>
</svg>