<?xml version="1.0" encoding="UTF-8"?>
<svg id="Layer_1" xmlns="http://www.w3.org/2000/svg" version="1.1" viewBox="0 0 24 24">
  <!-- Generator: Adobe Illustrator 29.0.0, SVG Export Plug-In . SVG Version: 2.1.0 Build 186)  -->
  <defs>
    <style>
      .st0 {
        fill: #fff;
      }

      .st1 {
        fill: none;
      }
    </style>
  </defs>
  <path class="st0" d="M19.2,4.4L2.9,10.7c-1.1.4-1.1,1.1-.2,1.3l4.1,1.3,1.6,4.8c.2.5.1.7.6.7s.6-.2.8-.4l2-2,4.2,3.1c.8.4,1.3.2,1.5-.7l2.8-13.1c.3-1.1-.4-1.7-1.1-1.3ZM17.1,7.4l-7.8,7.1-.3,3.3-1.6-4.8,9.2-5.8c.4-.3.8,0,.5.2Z"/>
  <rect class="st1" width="24" height="24"/>
</svg>